<svg width="20" height="21" viewBox="0 0 20 21" fill="none" xmlns="http://www.w3.org/2000/svg">
<path d="M19.2695 20.31C19.0844 20.31 18.8992 20.238 18.7551 20.0939L14.0535 15.4232C12.5173 16.7209 10.5706 17.4317 8.55967 17.4293C3.83745 17.4191 0 13.5816 0 8.86967C0 4.15773 3.83745 0.309998 8.55967 0.309998C13.2819 0.309998 17.1193 4.14745 17.1193 8.86967C17.1193 10.9684 16.358 12.9026 15.0926 14.3944L19.7839 19.0651C19.8524 19.1322 19.9068 19.2122 19.9439 19.3006C19.981 19.3889 20.0001 19.4837 20.0001 19.5795C20.0001 19.6754 19.981 19.7702 19.9439 19.8585C19.9068 19.9469 19.8524 20.0269 19.7839 20.0939C19.6399 20.238 19.4547 20.31 19.2695 20.31ZM8.55967 1.7709C4.65021 1.7709 1.46091 4.9602 1.46091 8.86967C1.46091 12.7791 4.63992 15.9684 8.55967 15.9684C12.4794 15.9684 15.6584 12.7894 15.6584 8.86967C15.6584 4.94991 12.4691 1.7709 8.55967 1.7709Z" fill="black"/>
</svg>
