<svg width="35" height="32" viewBox="0 0 35 32" fill="none" xmlns="http://www.w3.org/2000/svg">
<g clip-path="url(#clip0_421_1405)">
<g clip-path="url(#clip1_421_1405)">
<g clip-path="url(#clip2_421_1405)">
<path d="M11.7856 27.6597H1.47449" stroke="#0F1F2E" stroke-width="1.3852" stroke-linecap="round"/>
<path d="M6.62933 27.6592V30.7586" stroke="#0F1F2E" stroke-width="1.3852" stroke-linecap="round"/>
<path d="M21.0532 14.1885L28.7098 21.8451V27.9895C28.7098 29.5195 27.4694 30.7599 25.9394 30.7599H1.47449" stroke="#0F1F2E" stroke-width="1.3852" stroke-linecap="round"/>
<path d="M25.5162 8.99965L19.9799 3.46338L7.94029 15.503L13.4766 21.0393L25.5162 8.99965Z" stroke="#0F1F2E" stroke-width="1.3852" stroke-linejoin="round"/>
<path d="M10.6998 21.3929L7.58527 18.2783L9.14812 16.7155L12.2627 19.83L10.6998 21.3929Z" stroke="#0F1F2E" stroke-width="1.3852" stroke-linejoin="round"/>
<path d="M21.1848 4.67228L24.2993 7.78683L25.8622 6.22398L23.442 2.41504L21.1848 4.67228Z" stroke="#0F1F2E" stroke-width="1.3852" stroke-linejoin="round"/>
<path d="M25.5162 8.99965L19.9799 3.46338L17.0951 6.34828L22.6313 11.8846L25.5162 8.99965Z" stroke="#0F1F2E" stroke-width="1.3852" stroke-linejoin="round"/>
<path d="M28.7077 23.2939C29.5614 23.2939 30.2534 22.6019 30.2534 21.7483C30.2534 20.8946 29.5614 20.2026 28.7077 20.2026C27.8541 20.2026 27.1621 20.8946 27.1621 21.7483C27.1621 22.6019 27.8541 23.2939 28.7077 23.2939Z" fill="white" stroke="#0F1F2E" stroke-width="1.3852"/>
</g>
</g>
</g>
<defs>
<clipPath id="clip0_421_1405">
<rect width="34.1684" height="31.398" fill="white" transform="translate(0.551025 0.28418)"/>
</clipPath>
<clipPath id="clip1_421_1405">
<rect width="34.1684" height="31.398" fill="white" transform="translate(0.551025 0.28418)"/>
</clipPath>
<clipPath id="clip2_421_1405">
<rect width="34.1684" height="31.398" fill="white" transform="translate(0.551025 0.28418)"/>
</clipPath>
</defs>
</svg>
