<svg width="34" height="39" viewBox="0 0 34 39" fill="none" xmlns="http://www.w3.org/2000/svg">
<path d="M33.5481 17.3959C33.0409 13.3749 31.1006 9.67163 28.0832 6.96583C25.0658 4.26004 21.1739 2.73321 17.1215 2.66555L18.2765 1.51994C18.3601 1.4382 18.4267 1.34072 18.4725 1.23314C18.5182 1.12555 18.5422 1.00998 18.5431 0.893067C18.544 0.776158 18.5218 0.660228 18.4777 0.551953C18.4336 0.443678 18.3685 0.345199 18.2862 0.262188C18.2038 0.179177 18.1059 0.113274 17.998 0.0682761C17.8901 0.0232781 17.7744 7.38637e-05 17.6574 1.76056e-07C17.5405 -7.35116e-05 17.4248 0.0229848 17.3168 0.0678467C17.2088 0.112709 17.1108 0.178488 17.0284 0.261395L14.2209 3.04612C14.1382 3.12807 14.0725 3.22549 14.0275 3.33283C13.9825 3.44017 13.9591 3.55532 13.9587 3.67171C13.9582 3.7881 13.9806 3.90344 14.0248 4.01115C14.0689 4.11885 14.1338 4.21681 14.2157 4.29943L17.0232 7.13003C17.1049 7.21362 17.2024 7.2802 17.31 7.32596C17.4175 7.37172 17.5331 7.39573 17.65 7.39663C17.7669 7.39752 17.8829 7.37528 17.9911 7.33118C18.0994 7.28707 18.1979 7.22198 18.2809 7.13966C18.3639 7.05733 18.4298 6.9594 18.4748 6.85149C18.5198 6.74359 18.543 6.62784 18.5431 6.51093C18.5432 6.39402 18.5201 6.27825 18.4752 6.17029C18.4304 6.06232 18.3646 5.9643 18.2817 5.88187L16.8502 4.4382C19.9712 4.44038 23.0146 5.41167 25.5599 7.2179C28.1052 9.02413 30.0269 11.5762 31.0594 14.5215C32.0919 17.4668 32.1844 20.6601 31.324 23.6602C30.4637 26.6604 28.6929 29.3193 26.2564 31.2698C26.073 31.4169 25.9555 31.6307 25.9297 31.8644C25.917 31.9801 25.9272 32.0972 25.9597 32.209C25.9922 32.3207 26.0464 32.425 26.1192 32.5158C26.192 32.6066 26.282 32.6822 26.384 32.7383C26.486 32.7943 26.5981 32.8297 26.7138 32.8425C26.9475 32.8682 27.1818 32.8001 27.3652 32.653C31.9753 28.9561 34.2868 23.2525 33.5481 17.3959ZM16.6605 31.8773C16.5788 31.7937 16.4813 31.7272 16.3737 31.6814C16.2661 31.6356 16.1506 31.6116 16.0337 31.6107C15.9168 31.6098 15.8008 31.6321 15.6925 31.6762C15.5843 31.7203 15.4858 31.7854 15.4028 31.8677C15.3198 31.95 15.2539 32.048 15.2089 32.1559C15.1639 32.2638 15.1407 32.3795 15.1406 32.4964C15.1405 32.6133 15.1636 32.7291 15.2084 32.8371C15.2533 32.945 15.3191 33.0431 15.402 33.1255L16.8335 34.5687C13.7128 34.5666 10.6697 33.5957 8.12445 31.7899C5.57924 29.9841 3.65753 27.4325 2.62473 24.4876C1.59194 21.5427 1.49902 18.3498 2.3588 15.3498C3.21859 12.3499 4.98866 9.69088 7.42455 7.7401C7.60792 7.59296 7.72532 7.37899 7.75093 7.14529C7.77654 6.91158 7.70826 6.67727 7.56112 6.4939C7.41397 6.31054 7.20001 6.19313 6.9663 6.16752C6.73259 6.14191 6.49828 6.21019 6.31491 6.35734C1.70702 10.0546 -0.603161 15.7571 0.135628 21.6114C0.642639 25.6325 2.58299 29.3359 5.60051 32.0416C8.61804 34.7474 12.5102 36.274 16.5626 36.3412L15.4071 37.4875C15.3236 37.5692 15.257 37.6667 15.2112 37.7743C15.1655 37.8819 15.1414 37.9975 15.1405 38.1144C15.1396 38.2313 15.1619 38.3472 15.206 38.4555C15.2501 38.5638 15.3152 38.6622 15.3975 38.7453C15.4798 38.8283 15.5778 38.8942 15.6857 38.9392C15.7936 38.9842 15.9093 39.0074 16.0262 39.0074C16.1432 39.0075 16.2589 38.9845 16.3669 38.9396C16.4748 38.8947 16.5729 38.829 16.6553 38.746L19.4627 35.9611C19.5454 35.8791 19.6111 35.7817 19.6561 35.6744C19.7011 35.567 19.7245 35.4519 19.725 35.3355C19.7255 35.2191 19.703 35.1038 19.6589 34.9961C19.6148 34.8884 19.5499 34.7904 19.4679 34.7078L16.6605 31.8773Z" fill="black"/>
<path d="M17.546 18.8028C17.4201 18.7545 17.302 18.7099 17.2003 18.6652C17.0886 18.6158 16.9549 18.5645 16.8073 18.5085C15.9681 18.1898 15.5129 17.9379 15.5129 17.521C15.5129 17.3368 15.7094 17.051 16.0846 16.8609C16.3505 16.7266 17.3102 16.3585 18.5333 17.2574C18.627 17.3272 18.7336 17.3778 18.8469 17.4062C18.9603 17.4347 19.0781 17.4404 19.1937 17.4232C19.3093 17.4059 19.4203 17.3659 19.5203 17.3056C19.6204 17.2453 19.7076 17.1657 19.7768 17.0716C19.846 16.9774 19.8959 16.8705 19.9237 16.757C19.9514 16.6435 19.9564 16.5256 19.9384 16.4101C19.9204 16.2947 19.8798 16.1839 19.8188 16.0842C19.7578 15.9845 19.6777 15.8979 19.5832 15.8292C19.0327 15.4188 18.4001 15.1319 17.7287 14.9881V14.1856C17.7264 13.9521 17.632 13.7288 17.4661 13.5644C17.3001 13.4001 17.0759 13.3079 16.8423 13.3079C16.6087 13.3079 16.3846 13.4001 16.2186 13.5644C16.0527 13.7288 15.9583 13.9521 15.956 14.1856V15.0298C15.7243 15.09 15.4993 15.1735 15.2844 15.2791C14.3318 15.761 13.7402 16.62 13.7402 17.5209C13.7402 19.2399 15.3866 19.8653 16.1781 20.1658C16.2928 20.2091 16.3976 20.2485 16.4846 20.287C16.6114 20.3428 16.7572 20.3991 16.9134 20.4588C17.7838 20.7912 18.172 21.0107 18.172 21.431C18.172 21.615 17.9755 21.901 17.6003 22.0906C17.3344 22.2248 16.3751 22.5935 15.1516 21.6942C14.9622 21.555 14.7252 21.4967 14.4929 21.5321C14.2605 21.5676 14.0518 21.694 13.9125 21.8833C13.7733 22.0727 13.715 22.3097 13.7505 22.5421C13.786 22.7744 13.9123 22.9832 14.1017 23.1224C14.6519 23.5346 15.2844 23.8235 15.9562 23.9695V24.8217C15.9584 25.0553 16.0528 25.2785 16.2188 25.4429C16.3848 25.6072 16.6089 25.6995 16.8425 25.6995C17.0761 25.6995 17.3002 25.6072 17.4662 25.4429C17.6322 25.2785 17.7266 25.0553 17.7288 24.8217V23.9255C17.9607 23.8641 18.1857 23.7794 18.4005 23.6726C19.3531 23.1906 19.9446 22.3318 19.9446 21.4312C19.9444 19.7192 18.3843 19.123 17.546 18.8028Z" fill="black"/>
<path d="M16.8415 9.75403C14.9132 9.75403 13.0282 10.3258 11.4248 11.3971C9.82152 12.4685 8.57188 13.9911 7.83395 15.7727C7.09602 17.5542 6.90295 19.5145 7.27914 21.4058C7.65533 23.297 8.5839 25.0342 9.94741 26.3978C11.3109 27.7613 13.0482 28.6898 14.9394 29.066C16.8307 29.4422 18.791 29.2491 20.5725 28.5112C22.354 27.7733 23.8767 26.5236 24.948 24.9203C26.0193 23.317 26.5911 21.432 26.5911 19.5037C26.5882 16.9188 25.5601 14.4407 23.7323 12.6129C21.9045 10.7851 19.4263 9.75695 16.8415 9.75403ZM16.8415 27.4807C15.2638 27.4807 13.7215 27.0129 12.4097 26.1363C11.0979 25.2598 10.0754 24.014 9.47166 22.5564C8.8679 21.0988 8.70993 19.4948 9.01772 17.9475C9.32552 16.4001 10.0853 14.9787 11.2009 13.8631C12.3165 12.7475 13.7378 11.9877 15.2852 11.6799C16.8326 11.3722 18.4365 11.5301 19.8941 12.1339C21.3518 12.7376 22.5976 13.7601 23.4741 15.0719C24.3506 16.3837 24.8185 17.926 24.8185 19.5037C24.816 21.6186 23.9748 23.6461 22.4794 25.1416C20.9839 26.637 18.9564 27.4783 16.8415 27.4807Z" fill="black"/>
</svg>
