<svg width="26" height="26" viewBox="0 0 26 26" fill="none" xmlns="http://www.w3.org/2000/svg">
<path d="M13 26C20.1797 26 26 20.1797 26 13C26 5.8203 20.1797 0 13 0C5.8203 0 0 5.8203 0 13C0 20.1797 5.8203 26 13 26Z" fill="#FF2147"/>
<path d="M12.9991 15.6C12.5284 15.6 12.0758 15.4178 11.7364 15.0916C11.3969 14.7654 11.1969 14.3205 11.1781 13.8501L10.9379 7.78477C10.9283 7.5396 10.9683 7.29501 11.0554 7.06566C11.1426 6.83631 11.2752 6.62692 11.4452 6.45004C11.6153 6.27317 11.8193 6.13245 12.045 6.03632C12.2708 5.9402 12.5136 5.89064 12.7589 5.89062H13.2393C13.4847 5.89064 13.7275 5.9402 13.9533 6.03632C14.179 6.13245 14.383 6.27317 14.5531 6.45004C14.7231 6.62692 14.8557 6.83631 14.9429 7.06566C15.03 7.29501 15.07 7.5396 15.0604 7.78477L14.8202 13.8501C14.8014 14.3205 14.6013 14.7654 14.2619 15.0916C13.9224 15.4178 13.4699 15.6 12.9991 15.6Z" fill="white"/>
<path d="M14.8187 18.2899C14.8187 17.285 14.0041 16.4704 12.9992 16.4704C11.9943 16.4704 11.1797 17.285 11.1797 18.2899C11.1797 19.2948 11.9943 20.1094 12.9992 20.1094C14.0041 20.1094 14.8187 19.2948 14.8187 18.2899Z" fill="white"/>
</svg>
