<svg width="44" height="44" viewBox="0 0 44 44" fill="none" xmlns="http://www.w3.org/2000/svg">
<path d="M29.7254 26.8733H24.2935L25.4252 23.1127C25.7713 21.9883 25.6625 20.773 25.1221 19.7279C24.5816 18.6829 23.6528 17.8916 22.5351 17.5241C22.2141 17.4184 21.8748 17.38 21.5383 17.4114C21.2018 17.4429 20.8754 17.5435 20.5796 17.7069C20.2837 17.8703 20.0248 18.0931 19.8191 18.3612C19.6134 18.6294 19.4652 18.9371 19.3839 19.2651L19.2098 19.9964C18.5533 22.6312 17.1933 25.0382 15.2752 26.9603L14.2828 27.9353C14.0307 27.6176 13.7106 27.3605 13.346 27.1828C12.9815 27.005 12.5818 26.9112 12.1762 26.9081H10.9053C10.191 26.908 9.5054 27.1894 8.99706 27.6912C8.48871 28.1931 8.19852 28.875 8.18937 29.5892V40.8012C8.18937 41.5215 8.47551 42.2123 8.98485 42.7217C9.49419 43.231 10.185 43.5171 10.9053 43.5171H12.1762C12.6437 43.5161 13.103 43.3935 13.5089 43.1616C13.9148 42.9296 14.2535 42.5962 14.4918 42.194L14.7355 42.3159C16.309 43.1016 18.043 43.5128 19.8018 43.5171H26.0519C27.0852 43.5222 28.1035 43.2702 29.0152 42.784C29.9269 42.2977 30.7034 41.5924 31.2749 40.7316C32.4912 38.9129 33.1396 36.7738 33.1378 34.5859V30.2508C33.1378 29.8043 33.0493 29.3622 32.8774 28.9502C32.7055 28.5381 32.4536 28.1642 32.1362 27.8501C31.8189 27.536 31.4424 27.288 31.0286 27.1203C30.6148 26.9526 30.1719 26.8687 29.7254 26.8733ZM13.0816 40.8012C13.0816 41.0598 12.9788 41.3078 12.796 41.4906C12.6132 41.6734 12.3652 41.7761 12.1066 41.7761H10.9053C10.6467 41.7761 10.3988 41.6734 10.2159 41.4906C10.0331 41.3078 9.93036 41.0598 9.93036 40.8012V29.5892C9.93036 29.3306 10.0331 29.0827 10.2159 28.8998C10.3988 28.717 10.6467 28.6143 10.9053 28.6143H12.1762C12.4226 28.6319 12.653 28.7424 12.821 28.9233C12.9891 29.1043 13.0822 29.3423 13.0816 29.5892V40.8012ZM31.362 34.5859C31.3692 36.4437 30.8238 38.2618 29.7951 39.8088C29.3834 40.4242 28.8267 40.9287 28.1738 41.2779C27.521 41.6271 26.7923 41.8102 26.0519 41.811H19.8018C18.3154 41.8095 16.8495 41.4639 15.5189 40.8012L14.8225 40.453V29.7633L16.4243 28.1616C18.5672 26.019 20.0894 23.3356 20.829 20.3968L21.0031 19.683C21.0548 19.492 21.1799 19.3293 21.3513 19.2303C21.4391 19.192 21.534 19.1722 21.6298 19.1722C21.7257 19.1722 21.8205 19.192 21.9084 19.2303C22.2515 19.3444 22.5687 19.525 22.8419 19.7618C23.1152 19.9986 23.339 20.287 23.5007 20.6104C23.6624 20.9338 23.7588 21.2859 23.7843 21.6465C23.8098 22.0072 23.7639 22.3694 23.6494 22.7123L22.1869 27.6045C22.1491 27.7342 22.142 27.871 22.1662 28.0039C22.1903 28.1369 22.2451 28.2624 22.3262 28.3705C22.4053 28.4807 22.51 28.57 22.6314 28.6307C22.7527 28.6913 22.887 28.7216 23.0226 28.7187H29.621C29.8359 28.7187 30.0487 28.7611 30.2472 28.8433C30.4458 28.9255 30.6262 29.0461 30.7782 29.198C30.9301 29.35 31.0507 29.5304 31.1329 29.729C31.2152 29.9275 31.2575 30.1403 31.2575 30.3553L31.362 34.5859ZM16.5635 10.0901L16.0064 13.311C15.9394 13.6674 15.9759 14.0356 16.1117 14.3719C16.2475 14.7082 16.4768 14.9986 16.7725 15.2086C17.0997 15.4526 17.4959 15.5867 17.9041 15.5917C18.2192 15.5867 18.529 15.5092 18.8094 15.3653L21.7865 13.8332L24.694 15.3653C25.0137 15.5341 25.3746 15.609 25.7351 15.5813C26.0955 15.5536 26.4408 15.4244 26.7309 15.2086C27.0236 14.9999 27.2509 14.7124 27.3865 14.3796C27.5222 14.0467 27.5604 13.6821 27.497 13.3284L27.0095 10.0901L29.2902 7.82683C29.5536 7.57772 29.7408 7.25896 29.8302 6.90762C29.9196 6.55628 29.9074 6.18679 29.7951 5.8421C29.6826 5.49778 29.4764 5.1916 29.1996 4.95789C28.9229 4.72419 28.5865 4.57219 28.2282 4.51895L24.9725 4.04888L23.5275 1.07179C23.3649 0.749499 23.1161 0.478659 22.8087 0.289427C22.5013 0.100195 22.1475 0 21.7865 0C21.4255 0 21.0717 0.100195 20.7643 0.289427C20.4569 0.478659 20.2081 0.749499 20.0455 1.07179L18.6005 4.01406L15.3448 4.48413C14.9865 4.53737 14.6502 4.68937 14.3734 4.92307C14.0966 5.15678 13.8904 5.46296 13.7779 5.80728C13.6584 6.15675 13.6424 6.53333 13.732 6.89165C13.8216 7.24997 14.0129 7.57474 14.2828 7.82683L16.5635 10.0901ZM15.5189 6.20771L19.2272 5.668C19.3948 5.67885 19.5617 5.64003 19.7073 5.55641C19.8528 5.4728 19.9705 5.3481 20.0455 5.19794L21.7865 1.83782C21.8018 1.80449 21.8263 1.77624 21.8572 1.75643C21.888 1.73662 21.9239 1.7261 21.9606 1.7261C21.9973 1.7261 22.0332 1.73662 22.064 1.75643C22.0949 1.77624 22.1194 1.80449 22.1347 1.83782L23.8757 5.19794C23.9383 5.32507 24.0315 5.43461 24.147 5.51668C24.2625 5.59875 24.3966 5.65076 24.5373 5.668L28.2456 6.20771C28.2817 6.21506 28.3151 6.23182 28.3427 6.25627C28.3702 6.28073 28.3907 6.31203 28.4023 6.34699C28.4191 6.3761 28.4279 6.40913 28.4279 6.44274C28.4279 6.47636 28.4191 6.50939 28.4023 6.5385L25.7211 9.14999C25.6198 9.25131 25.5434 9.37487 25.498 9.51086C25.4527 9.64685 25.4397 9.79153 25.46 9.93343L26.1042 13.6069C26.116 13.644 26.1136 13.6841 26.0976 13.7195C26.0815 13.7548 26.0528 13.783 26.0171 13.7984C25.987 13.821 25.9503 13.8332 25.9127 13.8332C25.875 13.8332 25.8383 13.821 25.8082 13.7984L22.5003 12.0574C22.378 11.9888 22.2401 11.9528 22.0999 11.9528C21.9596 11.9528 21.8218 11.9888 21.6995 12.0574L18.3742 13.7984C18.3467 13.8196 18.3131 13.8311 18.2784 13.8311C18.2438 13.8311 18.2101 13.8196 18.1827 13.7984C18.147 13.783 18.1183 13.7548 18.1022 13.7195C18.0861 13.6841 18.0838 13.644 18.0956 13.6069L18.7398 9.93343C18.7601 9.79153 18.7471 9.64685 18.7017 9.51086C18.6564 9.37487 18.58 9.25131 18.4786 9.14999L15.7975 6.5385C15.7807 6.50939 15.7718 6.47636 15.7718 6.44274C15.7718 6.40913 15.7807 6.3761 15.7975 6.34699C15.7523 6.34955 15.7075 6.33736 15.6698 6.31224C15.6321 6.28712 15.6036 6.25043 15.5886 6.20771H15.5189ZM10.1915 20.449C10.4508 20.4537 10.7079 20.4005 10.944 20.2931C11.1801 20.1857 11.3893 20.0269 11.5561 19.8284C11.723 19.6298 11.8434 19.3965 11.9085 19.1454C11.9736 18.8943 11.9818 18.6319 11.9325 18.3772L11.4624 15.7309L13.4123 13.8332C13.658 13.6078 13.8338 13.3165 13.9187 12.9941C14.0037 12.6717 13.9942 12.3316 13.8915 12.0144C13.7889 11.6971 13.5972 11.4161 13.3394 11.2046C13.0817 10.9931 12.7686 10.8601 12.4374 10.8213L9.77367 10.4383L8.57238 8.01834C8.4121 7.73989 8.18126 7.50861 7.90312 7.34778C7.62498 7.18696 7.30937 7.10229 6.98808 7.10229C6.6668 7.10229 6.35119 7.18696 6.07305 7.34778C5.79491 7.50861 5.56407 7.73989 5.40378 8.01834L4.2025 10.4383L1.53878 10.8213C1.2076 10.8601 0.894502 10.9931 0.636718 11.2046C0.378934 11.4161 0.187306 11.6971 0.0846172 12.0144C-0.0180713 12.3316 -0.0275005 12.6717 0.0574505 12.9941C0.142402 13.3165 0.318159 13.6078 0.563827 13.8332L2.49633 15.7309L2.02626 18.3772C1.96595 18.7053 2.00116 19.0438 2.1277 19.3525C2.25425 19.6611 2.4668 19.9269 2.74007 20.1182C3.00696 20.3133 3.32389 20.4284 3.65378 20.45C3.98367 20.4715 4.31289 20.3987 4.60293 20.2401L6.98808 18.9866L9.37324 20.2401C9.62471 20.3758 9.90574 20.4476 10.1915 20.449ZM6.98808 17.1411C6.84776 17.1403 6.70967 17.1763 6.58766 17.2456L3.74984 18.6732L4.3766 15.5742C4.38629 15.4252 4.35966 15.2761 4.29901 15.1396C4.23836 15.0032 4.1455 14.8835 4.0284 14.7908L1.78252 12.5449L4.9163 12.0923C5.05485 12.0754 5.18678 12.0233 5.29953 11.941C5.41227 11.8587 5.5021 11.749 5.56047 11.6222L7.00549 8.78438L8.4157 11.6222C8.47406 11.749 8.56389 11.8587 8.67664 11.941C8.78939 12.0233 8.92131 12.0754 9.05986 12.0923L12.1936 12.5971L9.94777 14.7908C9.84637 14.8921 9.76999 15.0157 9.72466 15.1517C9.67933 15.2877 9.6663 15.4323 9.68662 15.5742L10.1915 18.708L7.38851 17.2456C7.26649 17.1763 7.12841 17.1403 6.98808 17.1411ZM43.4618 12.0226C43.3624 11.7076 43.1753 11.4273 42.9225 11.2146C42.6697 11.0019 42.3616 10.8655 42.0342 10.8213L39.3705 10.4383L38.1692 8.01834C38.0089 7.73989 37.7781 7.50861 37.5 7.34778C37.2218 7.18696 36.9062 7.10229 36.5849 7.10229C36.2636 7.10229 35.948 7.18696 35.6699 7.34778C35.3918 7.50861 35.1609 7.73989 35.0006 8.01834L33.7993 10.4383L31.1356 10.8213C30.8044 10.8601 30.4913 10.9931 30.2336 11.2046C29.9758 11.4161 29.7841 11.6971 29.6815 12.0144C29.5788 12.3316 29.5693 12.6717 29.6543 12.9941C29.7392 13.3165 29.915 13.6078 30.1607 13.8332L32.0932 15.7309L31.6231 18.3772C31.5628 18.7053 31.598 19.0438 31.7245 19.3525C31.8511 19.6611 32.0636 19.9269 32.3369 20.1182C32.6038 20.3133 32.9207 20.4284 33.2506 20.45C33.5805 20.4715 33.9097 20.3987 34.1998 20.2401L36.5849 18.9866L38.9701 20.2401C39.2216 20.3758 39.5026 20.4476 39.7883 20.449C40.0477 20.4537 40.3048 20.4005 40.5409 20.2931C40.777 20.1857 40.9861 20.0269 41.153 19.8284C41.3199 19.6298 41.4402 19.3965 41.5054 19.1454C41.5705 18.8943 41.5787 18.6319 41.5293 18.3772L41.0593 15.7309L42.9918 13.8332C43.2343 13.6075 43.4074 13.3172 43.4906 12.9964C43.5739 12.6757 43.5639 12.3379 43.4618 12.0226ZM39.5446 14.7908C39.4432 14.8921 39.3668 15.0157 39.3215 15.1517C39.2762 15.2877 39.2631 15.4323 39.2835 15.5742L39.7883 18.708L36.9854 17.2456C36.8631 17.177 36.7252 17.1409 36.5849 17.1409C36.4447 17.1409 36.3068 17.177 36.1845 17.2456L33.3467 18.6732L33.9734 15.5742C33.9831 15.4252 33.9565 15.2761 33.8959 15.1396C33.8352 15.0032 33.7423 14.8835 33.6252 14.7908L31.3794 12.5449L34.5131 12.0923C34.6517 12.0754 34.7836 12.0233 34.8964 11.941C35.0091 11.8587 35.0989 11.749 35.1573 11.6222L36.6023 8.78438L38.0125 11.6222C38.0709 11.749 38.1607 11.8587 38.2735 11.941C38.3862 12.0233 38.5182 12.0754 38.6567 12.0923L41.7905 12.5971L39.5446 14.7908Z" fill="black"/>
</svg>
