<svg width="25" height="25" viewBox="0 0 25 25" fill="none" xmlns="http://www.w3.org/2000/svg">
<path d="M21.5113 25H3.48869C2.2786 25 1.28735 24.0088 1.28735 22.7987V21.5113C1.28735 18.1643 4.00363 15.448 7.35069 15.448H17.6494C20.9964 15.448 23.7127 18.1643 23.7127 21.5113V22.7987C23.7127 24.0088 22.7214 25 21.5113 25ZM7.35069 17.276C5.02062 17.276 3.11537 19.1813 3.11537 21.5113V22.7987C3.11537 23.0046 3.28272 23.172 3.48869 23.172H21.5113C21.7173 23.172 21.8847 23.0046 21.8847 22.7987V21.5113C21.8847 19.1813 19.9794 17.276 17.6494 17.276H7.35069ZM12.5 13.414C8.81825 13.414 5.81876 10.4145 5.81876 6.73275C5.81876 3.05098 8.81825 0 12.5 0C16.1818 0 19.1813 2.99949 19.1813 6.68126C19.1813 10.363 16.1818 13.414 12.5 13.414ZM12.5 1.82801C9.82237 1.82801 7.64678 4.02935 7.64678 6.73275C7.64678 9.43615 9.82237 11.586 12.5 11.586C15.1777 11.586 17.3533 9.38465 17.3533 6.68126C17.3533 3.97786 15.1777 1.82801 12.5 1.82801Z" fill="black"/>
</svg>
