<svg width="25" height="26" viewBox="0 0 25 26" fill="none" xmlns="http://www.w3.org/2000/svg">
<path d="M17.0057 10.0113C16.5036 10.0113 16.0917 10.4233 16.0917 10.9253C16.0666 11.8613 15.6772 12.7504 15.0064 13.4035C14.3355 14.0566 13.4362 14.4221 12.5 14.4221C11.5637 14.4221 10.6645 14.0566 9.99363 13.4035C9.3228 12.7504 8.9334 11.8613 8.90833 10.9253C8.90833 10.4233 8.49639 10.0113 7.99433 10.0113C7.49227 10.0113 7.08032 10.4233 7.08032 10.9253C7.08032 13.9119 9.51338 16.345 12.5 16.345C15.4866 16.345 17.9197 13.9119 17.9197 10.9253C17.9197 10.4233 17.5077 10.0113 17.0057 10.0113Z" fill="black"/>
<path d="M23.6998 18.8682L23.1076 9.40629C23.049 8.52278 22.6579 7.69428 22.013 7.08758C21.368 6.48088 20.5172 6.14103 19.6318 6.13646H17.8939C17.7523 3.27858 15.3965 0.987129 12.5 0.987129C9.60347 0.987129 7.24765 3.27858 7.10604 6.13646H5.36814C3.52726 6.13646 2.0082 7.57827 1.89235 9.40629L1.30017 18.8682C1.18431 20.6576 1.77648 22.3826 2.96083 23.7214C3.54095 24.3841 4.24726 24.9247 5.03853 25.3114C5.8298 25.6982 6.69019 25.9236 7.56948 25.9743C7.71109 25.9743 7.8527 25.9871 7.9943 25.9871H17.0056C18.795 25.9871 20.4814 25.292 21.743 24.0175C23.0046 22.7559 23.7126 21.0695 23.7126 19.2801V18.8682H23.6998ZM12.5 2.82801C14.3923 2.82801 15.9243 4.29557 16.0659 6.14933H8.93405C9.07566 4.29557 10.6076 2.82801 12.5 2.82801ZM20.4557 22.743C20.0039 23.1978 19.4663 23.5583 18.874 23.8036C18.2817 24.0489 17.6467 24.1741 17.0056 24.172H7.68534C7.04405 24.1336 6.41678 23.9682 5.83997 23.6854C5.26317 23.4025 4.74834 23.0078 4.3254 22.5242C3.46289 21.5458 3.03807 20.2971 3.11531 18.984L3.70748 9.53502C3.75898 8.65963 4.49276 7.97735 5.36814 7.97735H19.6189C20.4943 7.97735 21.2281 8.65963 21.2796 9.53502L21.8717 18.984V19.293C21.8717 20.5932 21.3697 21.8162 20.4428 22.743H20.4557Z" fill="black"/>
</svg>
