<svg width="22" height="22" viewBox="0 0 22 22" fill="none" xmlns="http://www.w3.org/2000/svg">
<path d="M19.3223 2.59988H18.3874V1.37812C18.3874 1.01262 18.2422 0.662089 17.9837 0.403641C17.7253 0.145194 17.3747 9.36628e-08 17.0092 9.36628e-08C16.6437 9.36628e-08 16.2932 0.145194 16.0348 0.403641C15.7763 0.662089 15.6311 1.01262 15.6311 1.37812V2.59988H12.1163V1.37812C12.1163 1.19714 12.0806 1.01794 12.0114 0.850735C11.9421 0.683534 11.8406 0.531612 11.7126 0.403641C11.5847 0.275671 11.4328 0.17416 11.2656 0.104903C11.0984 0.035646 10.9191 0 10.7382 0C10.5572 0 10.378 0.035646 10.2108 0.104903C10.0436 0.17416 9.89167 0.275671 9.76369 0.403641C9.63573 0.531612 9.53421 0.683534 9.46496 0.850735C9.3957 1.01794 9.36005 1.19714 9.36005 1.37812V2.59988H5.84522V1.37812C5.84522 1.01262 5.70003 0.662089 5.44158 0.403641C5.18314 0.145194 4.8326 9.36628e-08 4.4671 9.36628e-08C4.10161 9.36628e-08 3.75108 0.145194 3.49263 0.403641C3.23418 0.662089 3.08899 1.01262 3.08899 1.37812V2.59988H2.08958C1.53356 2.60259 1.00132 2.82571 0.609599 3.2203C0.217874 3.6149 -0.00135263 4.14876 6.28002e-06 4.70477V19.8951C-0.0013523 20.4512 0.217928 20.9851 0.609738 21.3797C1.00155 21.7743 1.53389 21.9974 2.08997 22H19.3223C19.8783 21.9973 20.4106 21.7742 20.8023 21.3796C21.194 20.985 21.4133 20.4511 21.4119 19.8951V4.70477C21.4133 4.14869 21.194 3.61477 20.8022 3.22017C20.4104 2.82556 19.8784 2.60248 19.3223 2.59988ZM16.4168 1.37812C16.4168 1.221 16.4792 1.07032 16.5903 0.959216C16.7014 0.848116 16.8521 0.7857 17.0092 0.7857C17.1664 0.7857 17.317 0.848116 17.4281 0.959216C17.5392 1.07032 17.6017 1.221 17.6017 1.37812V2.59988H16.4168V1.37812ZM10.1458 1.37812C10.1458 1.221 10.2082 1.07032 10.3193 0.959216C10.4304 0.848116 10.5811 0.7857 10.7382 0.7857C10.8953 0.7857 11.046 0.848116 11.1571 0.959216C11.2682 1.07032 11.3306 1.221 11.3306 1.37812V2.59988H10.1458V1.37812ZM3.87469 1.37812C3.87469 1.221 3.9371 1.07032 4.0482 0.959216C4.1593 0.848116 4.30999 0.7857 4.4671 0.7857C4.62422 0.7857 4.77491 0.848116 4.88601 0.959216C4.99711 1.07032 5.05952 1.221 5.05952 1.37812V2.59988H3.87429L3.87469 1.37812ZM2.08958 3.38558H3.08899V4.14535C3.0905 4.36463 3.14405 4.58041 3.24522 4.77494C3.3464 4.96948 3.49232 5.13722 3.67097 5.26437C3.84962 5.39151 4.0559 5.47442 4.27285 5.50629C4.4898 5.53815 4.71122 5.51805 4.91888 5.44765C4.96763 5.43076 5.01258 5.40442 5.05116 5.37016C5.08973 5.33589 5.12118 5.29436 5.14371 5.24794C5.16623 5.20152 5.1794 5.15112 5.18244 5.09961C5.18549 5.04811 5.17836 4.9965 5.16147 4.94775C5.14457 4.899 5.11824 4.85405 5.08397 4.81548C5.04971 4.7769 5.00818 4.74545 4.96176 4.72293C4.91534 4.7004 4.86493 4.68724 4.81343 4.68419C4.76192 4.68114 4.71032 4.68827 4.66157 4.70517C4.57228 4.73536 4.47711 4.74396 4.38386 4.73023C4.29061 4.71651 4.20195 4.68087 4.12515 4.62623C4.04835 4.57159 3.9856 4.49952 3.94206 4.41593C3.89853 4.33233 3.87543 4.2396 3.87469 4.14535V3.38558H9.36005V4.14535C9.36047 4.51073 9.5058 4.86101 9.76415 5.11937C10.0225 5.37773 10.3728 5.52306 10.7382 5.52347C11.0764 5.54037 11.5718 5.3734 11.4327 4.94795C11.4158 4.89919 11.3895 4.85423 11.3552 4.81566C11.3209 4.77708 11.2793 4.74565 11.2329 4.72313C11.1865 4.70063 11.136 4.68749 11.0845 4.68447C11.033 4.68146 10.9814 4.68862 10.9326 4.70556C10.8433 4.73577 10.7481 4.74435 10.6548 4.73061C10.5616 4.71687 10.4729 4.68119 10.3961 4.62651C10.3192 4.57183 10.2565 4.4997 10.213 4.41606C10.1695 4.33241 10.1464 4.23964 10.1458 4.14535V3.38558H15.6311V4.14535C15.6327 4.36458 15.6862 4.58031 15.7874 4.77481C15.8885 4.96931 16.0344 5.13702 16.213 5.26415C16.3916 5.39129 16.5978 5.47421 16.8147 5.50611C17.0316 5.53801 17.253 5.51798 17.4606 5.44765C17.5584 5.41307 17.6386 5.34121 17.6836 5.24776C17.7286 5.1543 17.7348 5.04684 17.7009 4.94882C17.667 4.85079 17.5957 4.77016 17.5025 4.72451C17.4094 4.67887 17.302 4.67191 17.2037 4.70517C17.1144 4.73546 17.0192 4.74412 16.9259 4.73043C16.8326 4.71675 16.7439 4.68111 16.6671 4.62646C16.5903 4.5718 16.5275 4.49969 16.484 4.41605C16.4405 4.33241 16.4175 4.23963 16.4168 4.14535V3.38558H19.3223C19.67 3.38808 20.0026 3.52835 20.247 3.77564C20.4914 4.02294 20.6278 4.35707 20.6262 4.70477V6.68277C20.5683 6.64682 20.5018 6.62702 20.4337 6.62542L0.785707 6.64585V4.70517C0.783929 4.35726 0.920271 4.02287 1.1648 3.77539C1.40933 3.52792 1.74207 3.38758 2.08997 3.38519L2.08958 3.38558ZM19.3223 21.2143H2.08958C1.74188 21.2118 1.40936 21.0715 1.16494 20.8242C0.920517 20.5769 0.784137 20.2428 0.785707 19.8951V7.43155L20.4345 7.41112C20.5024 7.40936 20.5685 7.38956 20.6262 7.35376V19.8951C20.6278 20.2429 20.4913 20.5771 20.2468 20.8244C20.0023 21.0717 19.6701 21.2119 19.3223 21.2143Z" fill="#B3AFB1"/>
<path d="M6.01639 9.23431H3.48172C3.37753 9.23431 3.2776 9.2757 3.20393 9.34938C3.13026 9.42305 3.08887 9.52297 3.08887 9.62716V11.9167C3.08887 12.0209 3.13026 12.1208 3.20393 12.1945C3.2776 12.2682 3.37753 12.3095 3.48172 12.3095H6.01639C6.12058 12.3095 6.2205 12.2682 6.29417 12.1945C6.36785 12.1208 6.40924 12.0209 6.40924 11.9167V9.62716C6.40924 9.52297 6.36785 9.42305 6.29417 9.34938C6.2205 9.2757 6.12058 9.23431 6.01639 9.23431ZM5.62354 11.5238H3.87457V10.02H5.62354V11.5238ZM11.5909 9.23431H9.05587C8.95168 9.23431 8.85176 9.2757 8.77808 9.34938C8.70441 9.42305 8.66302 9.52297 8.66302 9.62716V11.9167C8.66302 12.0209 8.70441 12.1208 8.77808 12.1945C8.85176 12.2682 8.95168 12.3095 9.05587 12.3095H11.5905C11.6947 12.3095 11.7947 12.2682 11.8683 12.1945C11.942 12.1208 11.9834 12.0209 11.9834 11.9167V9.62716C11.9834 9.52297 11.942 9.42305 11.8683 9.34938C11.7947 9.2757 11.6951 9.23431 11.5909 9.23431ZM11.1981 11.5238H9.44872V10.02H11.1977L11.1981 11.5238ZM17.1651 9.23431H14.6304C14.5262 9.23431 14.4263 9.2757 14.3526 9.34938C14.279 9.42305 14.2376 9.52297 14.2376 9.62716V11.9167C14.2376 12.0209 14.279 12.1208 14.3526 12.1945C14.4263 12.2682 14.5262 12.3095 14.6304 12.3095H17.1655C17.2697 12.3095 17.3696 12.2682 17.4433 12.1945C17.5169 12.1208 17.5583 12.0209 17.5583 11.9167V9.62716C17.5583 9.52297 17.5169 9.42305 17.4433 9.34938C17.3696 9.2757 17.2693 9.23431 17.1651 9.23431ZM16.7722 11.5238H15.0233V10.02H16.7726L16.7722 11.5238ZM6.01639 14.8085H3.48172C3.37753 14.8085 3.2776 14.8499 3.20393 14.9235C3.13026 14.9972 3.08887 15.0971 3.08887 15.2013V17.4908C3.08887 17.595 3.13026 17.695 3.20393 17.7686C3.2776 17.8423 3.37753 17.8837 3.48172 17.8837H6.01639C6.12058 17.8837 6.2205 17.8423 6.29417 17.7686C6.36785 17.695 6.40924 17.595 6.40924 17.4908V15.2013C6.40924 15.0971 6.36785 14.9972 6.29417 14.9235C6.2205 14.8499 6.12058 14.8085 6.01639 14.8085ZM5.62354 17.098H3.87457V15.5942H5.62354V17.098ZM11.5909 14.8085H9.05587C8.95168 14.8085 8.85176 14.8499 8.77808 14.9235C8.70441 14.9972 8.66302 15.0971 8.66302 15.2013V17.4908C8.66302 17.595 8.70441 17.695 8.77808 17.7686C8.85176 17.8423 8.95168 17.8837 9.05587 17.8837H11.5905C11.6947 17.8837 11.7947 17.8423 11.8683 17.7686C11.942 17.695 11.9834 17.595 11.9834 17.4908V15.2013C11.9834 15.0971 11.942 14.9972 11.8683 14.9235C11.7947 14.8499 11.6951 14.8085 11.5909 14.8085ZM11.1981 17.098H9.44872V15.5942H11.1977L11.1981 17.098ZM17.1651 14.8085H14.6304C14.5262 14.8085 14.4263 14.8499 14.3526 14.9235C14.279 14.9972 14.2376 15.0971 14.2376 15.2013V17.4908C14.2376 17.595 14.279 17.695 14.3526 17.7686C14.4263 17.8423 14.5262 17.8837 14.6304 17.8837H17.1655C17.2697 17.8837 17.3696 17.8423 17.4433 17.7686C17.5169 17.695 17.5583 17.595 17.5583 17.4908V15.2013C17.5583 15.0971 17.5169 14.9972 17.4433 14.9235C17.3696 14.8499 17.2693 14.8085 17.1651 14.8085ZM16.7722 17.098H15.0233V15.5942H16.7726L16.7722 17.098Z" fill="#B3AFB1"/>
</svg>
