<svg width="21" height="21" viewBox="0 0 21 21" fill="none" xmlns="http://www.w3.org/2000/svg">
<path d="M18.655 21H13.895C12.6 21 11.55 19.95 11.55 18.655V12.25C11.55 11.865 11.865 11.55 12.25 11.55H18.655C19.95 11.55 21 12.6 21 13.895V18.655C21 19.95 19.95 21 18.655 21ZM12.95 12.95V18.655C12.95 19.18 13.37 19.6 13.895 19.6H18.655C19.18 19.6 19.6 19.18 19.6 18.655V13.895C19.6 13.37 19.18 12.95 18.655 12.95H12.95ZM7.105 21H2.345C1.05 21 0 19.95 0 18.655V13.895C0 12.6 1.05 11.55 2.345 11.55H8.75C9.135 11.55 9.45 11.865 9.45 12.25V18.655C9.45 19.95 8.4 21 7.105 21ZM2.345 12.95C1.82 12.95 1.4 13.37 1.4 13.895V18.655C1.4 19.18 1.82 19.6 2.345 19.6H7.105C7.63 19.6 8.05 19.18 8.05 18.655V12.95H2.345ZM18.655 9.45H12.25C11.865 9.45 11.55 9.135 11.55 8.75V2.345C11.55 1.05 12.6 0 13.895 0H18.655C19.95 0 21 1.05 21 2.345V7.105C21 8.4 19.95 9.45 18.655 9.45ZM12.95 8.05H18.655C19.18 8.05 19.6 7.63 19.6 7.105V2.345C19.6 1.82 19.18 1.4 18.655 1.4H13.895C13.37 1.4 12.95 1.82 12.95 2.345V8.05ZM8.75 9.45H2.345C1.05 9.45 0 8.4 0 7.105V2.345C0 1.05 1.05 0 2.345 0H7.105C8.4 0 9.45 1.05 9.45 2.345V8.75C9.45 9.135 9.135 9.45 8.75 9.45ZM2.345 1.4C1.82 1.4 1.4 1.82 1.4 2.345V7.105C1.4 7.63 1.82 8.05 2.345 8.05H8.05V2.345C8.05 1.82 7.63 1.4 7.105 1.4H2.345Z" fill="black"/>
</svg>
