<svg width="35" height="17" viewBox="0 0 35 17" fill="none" xmlns="http://www.w3.org/2000/svg">
<path d="M27.1845 2.81263C27.3144 2.67194 27.474 2.5989 27.6634 2.59348C27.8528 2.58807 28.0178 2.6503 28.1585 2.78016L33.4666 7.86105C33.5424 7.92598 33.5965 8.00173 33.629 8.08831C33.6614 8.17488 33.6777 8.26687 33.6777 8.36427C33.6777 8.45084 33.6614 8.53742 33.629 8.62399C33.5965 8.71057 33.5424 8.79173 33.4666 8.86749L28.1585 13.9321C28.0178 14.062 27.8528 14.1242 27.6634 14.1188C27.474 14.1134 27.3144 14.0458 27.1845 13.9159C27.0438 13.7752 26.9762 13.6075 26.9816 13.4127C26.987 13.2179 27.0601 13.0556 27.2008 12.9257L31.259 9.04605H1.71516C1.52037 9.04605 1.35534 8.97841 1.22006 8.84314C1.08479 8.70786 1.01715 8.54824 1.01715 8.36427C1.01715 8.16947 1.08479 8.00444 1.22006 7.86916C1.35534 7.73389 1.52037 7.66625 1.71516 7.66625H31.259L27.2008 3.7866C27.0601 3.65674 26.987 3.49711 26.9816 3.30773C26.9762 3.11835 27.0438 2.95331 27.1845 2.81263Z" fill="#0F1F2E"/>
</svg>
