<svg width="25" height="25" viewBox="0 0 25 25" fill="none" xmlns="http://www.w3.org/2000/svg">
<path d="M24.1947 5.64108C24.0686 5.14685 23.7175 4.73443 23.2574 4.52306L23.3392 4.33559C23.4482 4.08334 23.4517 3.80387 23.346 3.54823C23.2726 3.36406 23.147 3.20532 22.9847 3.09147L23.4142 2.07231V2.06891C23.7277 1.31564 23.3698 0.439609 22.6199 0.11926C21.8701 -0.201155 20.9906 0.146555 20.6634 0.892971V0.899761L20.2374 1.90188C19.7806 1.82346 19.3103 2.06552 19.1193 2.51202L11.7468 19.7047C11.7093 19.79 11.6957 19.882 11.7025 19.974L11.8729 22.2986C11.5423 21.8521 11.198 21.4021 10.7924 21.0102C10.2504 20.4886 9.41195 19.824 8.39965 20.0558C7.6736 20.2228 7.18622 20.8738 6.7533 21.4499C6.61696 21.6306 6.48741 21.8044 6.36811 21.9339C5.65232 22.7144 5.12739 22.6531 4.78993 22.5406C4.49342 22.4384 4.19004 22.2679 3.90371 22.0464C4.36387 21.7226 4.81377 21.3851 5.25008 21.0272C5.6659 20.6864 6.14309 20.2637 6.52149 19.7286C6.77374 19.3707 7.06346 18.8901 7.05661 18.3379C7.05321 17.7891 6.79418 17.2335 6.36811 16.8552C5.5944 16.1701 4.60932 16.0371 3.59695 16.4768C2.49257 16.954 1.71546 17.9732 1.57226 19.1355C1.45976 20.0455 1.76999 21.0476 2.4244 21.8964C1.69835 22.3702 0.958729 22.8235 0.22929 23.2666C0.00433983 23.4029 -0.067226 23.6961 0.0691153 23.921C0.205457 24.146 0.498577 24.2175 0.723527 24.0812C1.50749 23.604 2.3017 23.12 3.0822 22.6053C3.51506 22.987 3.99572 23.2767 4.4797 23.4437C5.38975 23.7539 6.26239 23.4608 7.07019 22.578C7.22018 22.4143 7.36331 22.2235 7.5133 22.0258C7.84736 21.5827 8.22569 21.0782 8.61082 20.9896C9.04367 20.8907 9.51068 21.1089 10.1242 21.702C10.5366 22.0974 10.8843 22.5746 11.2558 23.0791C11.5183 23.4403 11.7944 23.8119 12.0943 24.1561C12.1898 24.2652 12.3193 24.3198 12.4522 24.3198C12.5442 24.3198 12.6329 24.2925 12.7146 24.2413C12.7862 24.2209 12.8544 24.1834 12.9158 24.1357L15.8437 21.7531L15.8471 21.7497C15.8607 21.7395 15.8744 21.7259 15.8846 21.7156L15.888 21.7122C15.9016 21.6986 15.9118 21.6849 15.9254 21.6714C15.9288 21.668 15.9322 21.6646 15.9322 21.6611C15.939 21.6509 15.9459 21.6407 15.9561 21.6304C15.9595 21.6236 15.9629 21.6202 15.9663 21.6134C15.9731 21.6031 15.9766 21.5929 15.9834 21.5827C15.9868 21.5759 15.9902 21.5724 15.9936 21.5657L16.0141 21.5248V21.518L22.8858 5.39909C23.0767 5.49455 23.2199 5.67177 23.2744 5.87968C23.3323 6.10123 23.2812 6.33983 23.1415 6.52051C23.1381 6.52391 23.1347 6.5273 23.1347 6.53076L23.1244 6.54101C22.2757 7.76809 21.7713 8.88265 21.5429 10.0484C21.4509 10.5153 21.3997 11.013 21.3792 11.6163C21.3724 11.8788 21.577 12.1003 21.8394 12.1072H21.8564C22.1121 12.1072 22.3234 11.9027 22.3336 11.6436C22.3507 11.0915 22.3984 10.6415 22.4802 10.2291C22.6813 9.19627 23.1381 8.19761 23.9084 7.07959C24.2152 6.67729 24.3243 6.13878 24.1947 5.64108ZM2.51307 19.2548C2.61533 18.4265 3.17434 17.6971 3.97195 17.3528C4.18672 17.2608 4.45254 17.1824 4.73548 17.1824C5.05929 17.1824 5.40353 17.2812 5.7342 17.5743C5.95915 17.7721 6.09889 18.0686 6.10235 18.348C6.10574 18.631 5.91149 18.9411 5.74106 19.1831C5.4275 19.6262 5.01162 19.9909 4.64354 20.2943C4.18138 20.6703 3.70496 21.0285 3.21535 21.368C2.6801 20.7 2.42786 19.9331 2.51307 19.2548ZM13.0454 22.5304L12.9432 21.1363C13.3118 21.3653 13.7129 21.5377 14.1328 21.6475L13.0454 22.5304ZM15.0497 20.8261C14.2521 20.7852 13.492 20.4614 12.9126 19.9126L17.5822 9.02232L19.6921 9.92558L15.0497 20.8261ZM20.067 9.05308L17.9571 8.14981L20.1283 3.08815L22.2212 3.9982L20.067 9.05308ZM22.3473 1.62248L21.9349 2.60416L21.3111 2.33148L21.7269 1.35326C21.7985 1.18622 21.9962 1.10787 22.1667 1.18283C22.3371 1.25433 22.4155 1.45205 22.3473 1.62248Z" fill="#B3AFB1"/>
</svg>
