<svg width="36" height="44" viewBox="0 0 36 44" fill="none" xmlns="http://www.w3.org/2000/svg">
<path d="M8.99219 15.7397V27.3359C8.99217 27.4583 9.02558 27.5785 9.08883 27.6834C9.15208 27.7883 9.24277 27.8739 9.3511 27.931C11.2001 28.906 17.5902 32.2838 17.7216 32.3441C17.7909 32.376 17.9059 32.4088 18.001 32.4088C18.094 32.4088 18.2083 32.3772 18.2804 32.3441C18.4196 32.2803 22.7846 29.9697 26.6508 27.931C26.7592 27.8739 26.8498 27.7882 26.9131 27.6834C26.9763 27.5785 27.0098 27.4583 27.0098 27.3359V15.7397C27.0098 15.5254 26.8767 15.2636 26.6508 15.1446L18.3152 10.7447C18.2183 10.6936 18.1105 10.6669 18.001 10.6669C17.8915 10.6669 17.7836 10.6936 17.6868 10.7447L9.3511 15.1446C9.12659 15.2628 8.99219 15.5238 8.99219 15.7397ZM10.3382 16.8559L17.3278 20.5453V30.6193L10.3382 26.9299V16.8559ZM18.6739 30.6193V20.5453L21.6498 18.9744L21.6064 21.2352C21.6031 21.4137 21.6708 21.5861 21.7946 21.7147C21.9184 21.8433 22.0882 21.9175 22.2667 21.9211H22.2799C22.4561 21.9209 22.6253 21.8517 22.751 21.7283C22.8768 21.6048 22.9492 21.437 22.9526 21.2608L23.0104 18.2564L25.6635 16.8558V26.9298L18.6739 30.6193ZM18.0009 12.101L24.8948 15.7396L22.3492 17.0832L15.5497 13.3947L18.0009 12.101ZM14.1188 14.1499L20.9184 17.8385L18.0009 19.3784L11.107 15.7397L14.1188 14.1499Z" fill="black"/>
<path d="M19.5336 3.78945L22.1741 1.14894C22.4371 0.886 22.4371 0.460144 22.1741 0.197205C21.9112 -0.0657349 21.4853 -0.0657349 21.2224 0.197205L17.5242 3.89542C17.2568 4.16284 17.2446 4.64039 17.5899 4.91297L21.2654 8.5881C21.5283 8.85104 21.9542 8.85104 22.2171 8.5881C22.4801 8.32516 22.4801 7.89931 22.2171 7.63637L19.737 5.15653C28.1066 6.02806 34.6539 13.1234 34.6539 21.7197C34.6562 24.9825 33.6994 28.1742 31.9024 30.8976C30.1054 33.6211 27.5475 35.7563 24.5468 37.0376C24.4655 37.0724 24.3919 37.1229 24.3301 37.1861C24.2683 37.2493 24.2196 37.3241 24.1868 37.4062C24.1539 37.4883 24.1375 37.576 24.1386 37.6644C24.1396 37.7528 24.1581 37.8401 24.1929 37.9214C24.2276 38.0027 24.2781 38.0763 24.3413 38.1381C24.4046 38.1998 24.4794 38.2486 24.5614 38.2814C24.6435 38.3143 24.7312 38.3307 24.8196 38.3296C24.908 38.3286 24.9954 38.3101 25.0766 38.2753C28.3198 36.8903 31.0843 34.5826 33.0264 31.6391C34.9685 28.6956 36.0026 25.2461 36 21.7197C36.0002 12.3113 28.7433 4.57077 19.5336 3.78945ZM15.0009 3.97132C6.30866 5.4311 0 12.8956 0 21.7196C0 31.6449 8.07471 39.7197 18.0001 39.7197C18.4977 39.7197 18.9907 39.6941 19.4792 39.6533L17.2058 41.9268C16.9428 42.1898 16.9428 42.6156 17.2058 42.8786C17.4687 43.1415 17.8945 43.1415 18.1575 42.8786C19.7143 41.3153 21.7428 39.308 21.8926 39.1248C21.9907 39.0053 22.044 38.8553 22.0432 38.7007C22.0425 38.5462 21.9878 38.3967 21.8886 38.2781C21.7479 38.1094 19.3921 35.7695 18.1148 34.4874C17.8518 34.2245 17.426 34.2245 17.163 34.4874C16.9001 34.7503 16.9001 35.1762 17.163 35.4391L19.9733 38.2497C19.3266 38.3288 18.6678 38.3736 18.0001 38.3736C8.81718 38.3736 1.34614 30.9026 1.34614 21.7197C1.34614 13.5555 7.18251 6.64948 15.2237 5.29903C15.5905 5.23726 15.8376 4.89023 15.7761 4.52373C15.7146 4.15724 15.3722 3.9105 15.0009 3.97132Z" fill="black"/>
</svg>
