<svg width="25" height="25" viewBox="0 0 25 25" fill="none" xmlns="http://www.w3.org/2000/svg">
<path d="M11.2255 0C8.24982 0.00498619 5.39748 1.18871 3.29337 3.29183C1.18927 5.39495 0.00498852 8.24596 0 11.2202C0.00248694 14.197 1.18537 17.0514 3.28947 19.158C5.39357 21.2647 8.24732 22.4518 11.2255 22.4593C13.8668 22.4593 16.3005 21.5306 18.2249 19.9937L22.899 24.6656C23.1358 24.8857 23.4487 25.0055 23.772 24.9998C24.0953 24.9941 24.4038 24.8635 24.6327 24.6353C24.8617 24.407 24.9932 24.099 24.9997 23.7759C25.0063 23.4528 24.8873 23.1397 24.6677 22.9024L19.9936 18.2258C21.59 16.2413 22.4603 13.7713 22.4604 11.2249C22.4604 5.03967 17.4136 0 11.2255 0ZM11.2255 2.49862C16.0647 2.49862 19.9606 6.38798 19.9606 11.2202C19.9606 16.0525 16.0647 19.9654 11.2255 19.9654C6.38625 19.9654 2.49507 16.0666 2.49507 11.2296C2.49507 6.39269 6.38625 2.49862 11.2255 2.49862Z" fill="#E72D88"/>
</svg>
