<svg width="26" height="28" viewBox="0 0 26 28" fill="none" xmlns="http://www.w3.org/2000/svg">
<path d="M25.3686 11.9224L23.5954 10.0792C23.1745 9.64162 22.8296 8.77697 22.8296 8.15689V5.55014C22.8296 4.31012 21.8552 3.29712 20.6628 3.29646H18.1543C17.5586 3.29646 16.7259 2.93726 16.305 2.50005L14.5321 0.656851C13.6896 -0.21895 12.3103 -0.21895 11.4679 0.656851L9.69491 2.50137C9.27366 2.93891 8.44006 3.29712 7.84558 3.29712H5.33817C4.14699 3.29712 3.17132 4.31012 3.17132 5.55014V8.15696C3.17132 8.77459 2.8265 9.64195 2.40558 10.0792L0.632296 11.9224C-0.210765 12.7982 -0.210765 14.2322 0.632296 15.1094L2.40558 16.9526C2.82676 17.3901 3.17132 18.2571 3.17132 18.8748V21.4817C3.17132 22.7204 4.14699 23.7347 5.33817 23.7347H7.84564C8.44139 23.7347 9.27404 24.0932 9.69497 24.5304L11.4679 26.3743C12.3104 27.2494 13.6897 27.2494 14.5321 26.3743L16.3051 24.5304C16.7263 24.0929 17.5587 23.7347 18.1544 23.7347H20.6628C21.8553 23.7347 22.8297 22.7204 22.8297 21.4817V18.8748C22.8297 18.2545 23.1748 17.3899 23.5954 16.9526L25.3687 15.1094C26.2104 14.2322 26.2104 12.7982 25.3686 11.9224ZM11.28 18.5838L6.49945 13.6132L8.03157 12.0207L11.2804 15.3982L17.9682 8.4472L19.4999 10.0397L11.28 18.5838Z" fill="#008000"/>
</svg>
