<svg width="38" height="38" viewBox="0 0 38 38" fill="none" xmlns="http://www.w3.org/2000/svg">
<path fill-rule="evenodd" clip-rule="evenodd" d="M20.7264 33.1657H1.50829C1.11129 33.1656 0.730589 33.0078 0.449903 32.7271C0.169218 32.4463 0.0115367 32.0656 0.0115367 31.6686C0.0115367 31.6686 -0.0144208 11.9626 0.0115367 7.69144C0.0149722 7.15321 0.362727 6.72834 0.362727 6.72834L5.57141 0.533656C5.71187 0.366523 5.88719 0.232147 6.08509 0.139958C6.28299 0.0477691 6.49866 -7.88711e-07 6.71698 0H31.4957C31.8927 0.000101224 32.2734 0.15788 32.5541 0.438637C32.8348 0.719393 32.9925 1.10014 32.9925 1.49714V14.0087H33.4956C35.6573 14.0087 37.4095 15.7612 37.4095 17.9225V20.419C37.4095 25.8251 35.3046 31.0188 31.5408 34.8995L30.5693 35.9012C30.1083 36.3763 29.5583 36.7561 28.9506 37.0186C28.3429 37.2812 27.6894 37.4215 27.0275 37.4314C26.3656 37.4414 25.7081 37.3208 25.0928 37.0767C24.4775 36.8325 23.9163 36.4695 23.4413 36.0084L22.4049 35.0022C21.8092 34.4241 21.2487 33.8108 20.7264 33.1657ZM17.5901 17.9225C17.5901 17.6051 17.6526 17.2908 17.7741 16.9976C17.8956 16.7044 18.0736 16.4379 18.2981 16.2135C18.5226 15.9891 18.789 15.8111 19.0823 15.6897C19.3755 15.5682 19.6898 15.5058 20.0072 15.5058H33.4956C33.813 15.5058 34.1273 15.5682 34.4206 15.6897C34.7138 15.8111 34.9803 15.9891 35.2047 16.2135C35.4292 16.4379 35.6072 16.7044 35.7287 16.9976C35.8502 17.2908 35.9127 17.6051 35.9127 17.9225V20.419C35.9126 25.4361 33.9591 30.256 30.4662 33.8574L29.4947 34.8587C29.1708 35.1929 28.7842 35.46 28.357 35.6447C27.9298 35.8294 27.4704 35.928 27.0051 35.9351C26.5397 35.9421 26.0776 35.8573 25.645 35.6856C25.2124 35.5138 24.818 35.2585 24.4841 34.9342L23.4474 33.928C21.5942 32.1289 20.1209 29.9761 19.1148 27.5972C18.1087 25.2184 17.5902 22.6618 17.5901 20.0789V17.9225ZM16.1896 22.0776L13.4969 19.9235L10.6606 22.1925C10.4405 22.3689 10.175 22.4794 9.89479 22.5114C9.61457 22.5434 9.331 22.4956 9.07679 22.3734C8.82258 22.2512 8.60808 22.0597 8.45801 21.8209C8.30794 21.5821 8.22842 21.3057 8.22862 21.0237V7.69144H1.50829V31.6686H19.6217C17.7005 28.8054 16.5211 25.5096 16.1896 22.0776ZM25.2041 27.3287L32.1015 20.4312C32.242 20.291 32.4323 20.2122 32.6308 20.2122C32.8293 20.2122 33.0196 20.291 33.1601 20.4312C33.3003 20.5717 33.3791 20.762 33.3791 20.9605C33.3791 21.159 33.3003 21.3493 33.1601 21.4898L25.7332 28.9163C25.6637 28.9858 25.5812 29.041 25.4903 29.0786C25.3995 29.1163 25.3022 29.1357 25.2039 29.1357C25.1056 29.1357 25.0082 29.1163 24.9174 29.0786C24.8266 29.041 24.7441 28.9858 24.6746 28.9163L20.9612 25.2032C20.8209 25.0628 20.7421 24.8724 20.7421 24.674C20.7421 24.4755 20.8209 24.2851 20.9612 24.1447C21.1016 24.0044 21.292 23.9257 21.4904 23.9257C21.6889 23.9257 21.8793 24.0044 22.0197 24.1447L25.2041 27.3287ZM17.2683 15.1267V7.69144H9.72538V21.0237L13.4969 18.0065L16.0934 20.0839V17.9225C16.0934 16.8273 16.5434 15.8371 17.2683 15.1267ZM25.4854 14.0087V7.69144H18.7655V14.2098C19.1658 14.0763 19.5852 14.0084 20.0072 14.0087H25.4854ZM31.4957 14.0087V2.5717L27.0047 7.20092L26.9967 14.0087H31.4957ZM30.4528 1.49714H6.71698L2.76723 6.19469L25.9084 6.18094L30.4528 1.49714Z" fill="black"/>
</svg>
